subject_06
version=1
nRows=285
nColumns=3
inDegrees=yes
endheader
time	r_shoulder_elev	r_elbow_flex
55.8700	15.949024	56.452517
55.8800	15.949024	54.942517
55.8900	15.949024	52.967468
55.9000	15.949024	50.923699
55.9100	15.949024	49.245414
55.9200	15.949024	48.230056
55.9300	15.949024	47.921453
55.9400	15.949024	48.095673
55.9500	15.949024	48.351333
55.9600	15.949024	48.264532
55.9700	15.949024	47.545557
55.9800	15.949024	46.137964
55.9900	15.949024	44.227129
56.0000	15.949024	42.162363
56.0100	15.949024	40.328388
56.0200	15.949024	39.016665
56.0300	15.949024	38.340939
56.0400	15.949024	38.219658
56.0500	15.949024	38.421348
56.0600	15.949024	38.648455
56.0700	15.949024	38.627392
56.0800	15.949024	38.177602
56.0900	15.949024	37.245479
56.1000	15.949024	35.902746
56.1100	15.949024	34.317970
56.1200	15.949024	32.712629
56.1300	15.949024	31.311418
56.1400	15.949024	30.293970
56.1500	15.949024	29.754362
56.1600	15.949024	29.675813
56.1700	15.949024	29.928583
56.1800	15.949024	30.296402
56.1900	15.949024	30.529604
56.2000	15.949024	30.413437
56.2100	15.949024	29.831801
56.2200	15.949024	28.804799
56.2300	15.949024	27.485168
56.2400	15.949024	26.112466
56.2500	15.949024	24.939496
56.2600	15.949024	24.156260
56.2700	15.949024	23.837689
56.2800	15.949024	23.931819
56.2900	15.949024	24.288977
56.3000	15.949024	24.717016
56.3100	15.949024	25.039493
56.3200	15.949024	25.136057
56.3300	15.949024	24.955491
56.3400	15.949024	24.505650
56.3500	15.949024	23.834043
56.3600	15.949024	23.013367
56.3700	15.949024	22.138318
56.3800	15.949024	21.328444
56.3900	15.949024	20.723989
56.4000	15.949024	20.462697
56.4100	15.949024	20.636165
56.4200	15.949024	21.239229
56.4300	15.949024	22.136965
56.4400	15.949024	23.073608
56.4500	15.949024	23.733878
56.4600	15.949024	23.844360
56.4700	15.949024	23.280732
56.4800	15.949024	22.136803
56.4900	15.949024	20.720125
56.5000	15.949024	19.464976
56.5100	15.949024	18.787108
56.5200	15.949024	18.931594
56.5300	15.949024	19.872912
56.5400	15.949024	21.310017
56.5500	15.949024	22.763859
56.5600	15.949024	23.744778
56.5700	15.949024	23.927712
56.5800	15.949024	23.267324
56.5900	15.949024	22.010536
56.6000	15.949024	20.601579
56.6100	15.949024	19.516980
56.6200	15.949024	19.094604
56.6300	15.949024	19.421427
56.6400	15.949024	20.319595
56.6500	15.949024	21.430384
56.6600	15.949024	22.357852
56.6700	15.949024	22.813357
56.6800	15.949024	22.706331
56.6900	15.949024	22.152269
56.7000	15.949024	21.403964
56.7100	15.949024	20.741338
56.7200	15.949024	20.367262
56.7300	15.949024	20.348287
56.7400	15.949024	20.615942
56.7500	15.949024	21.017733
56.7600	15.949024	21.389032
56.7700	15.949024	21.613927
56.7800	15.949024	21.653242
56.7900	15.949024	21.537548
56.8000	15.949024	21.337619
56.8100	15.949024	21.131018
56.8200	15.949024	20.979429
56.8300	15.949024	20.920895
56.8400	15.949024	20.971403
56.8500	15.949024	21.126850
56.8600	15.949024	21.360495
56.8700	15.949024	21.619007
56.8800	15.949024	21.825987
56.8900	15.949024	21.900719
56.9000	15.949024	21.791258
56.9100	15.949024	21.509510
56.9200	15.949024	21.148728
56.9300	15.949024	20.866838
56.9400	15.949024	20.832868
56.9500	15.949024	21.153004
56.9600	15.949024	21.807804
56.9700	15.949024	22.633777
56.9800	15.949024	23.367500
56.9900	15.949024	23.743445
57.0000	15.949024	23.609410
57.0100	15.949024	23.009323
57.0200	15.949024	22.191057
57.0300	15.949024	21.525764
57.0400	15.949024	21.364014
57.0500	15.949024	21.885553
57.0600	15.949024	23.008276
57.0700	15.949024	24.401837
57.0800	15.949024	25.608727
57.0900	15.949024	26.228297
57.1000	15.949024	26.088145
57.1100	15.949024	25.327789
57.1200	15.949024	24.353441
57.1300	15.949024	23.676838
57.1400	15.949024	23.702482
57.1500	15.949024	24.553096
57.1600	15.949024	26.010243
57.1700	15.949024	27.599685
57.1800	15.949024	28.789002
57.1900	15.949024	29.214970
57.2000	15.949024	28.842890
57.2100	15.949024	27.987180
57.2200	15.949024	27.181364
57.2300	15.949024	26.951003
57.2400	15.949024	27.586367
57.2500	15.949024	29.013452
57.2600	15.949024	30.820565
57.2700	15.949024	32.430836
57.2800	15.949024	33.347560
57.2900	15.949024	33.367112
57.3000	15.949024	32.667622
57.3100	15.949024	31.735049
57.3200	15.949024	31.158442
57.3300	15.949024	31.382444
57.3400	15.949024	32.522948
57.3500	15.949024	34.323631
57.3600	15.949024	36.269582
57.3700	15.949024	37.806577
57.3800	15.949024	38.570333
57.3900	15.949024	38.528185
57.4000	15.949024	37.976138
57.4100	15.949024	37.398367
57.4200	15.949024	37.255332
57.4300	15.949024	37.794826
57.4400	15.949024	38.966088
57.4500	15.949024	40.468095
57.4600	15.949024	41.902474
57.4700	15.949024	42.956511
57.4800	15.949024	43.532288
57.4900	15.949024	43.766983
57.5000	15.949024	43.942168
57.5100	15.949024	44.331657
57.5200	15.949024	45.063975
57.5300	15.949024	46.065496
57.5400	15.949024	47.109194
57.5500	15.949024	47.941989
57.5600	15.949024	48.425563
57.5700	15.949024	48.619326
57.5800	15.949024	48.762524
57.5900	15.949024	49.161787
57.6000	15.949024	50.037067
57.6100	15.949024	51.400692
57.6200	15.949024	53.030490
57.6300	15.949024	54.554714
57.6400	15.949024	55.613803
57.6500	15.949024	56.026468
57.6600	15.949024	55.883041
57.6700	15.949024	55.520205
57.6800	15.949024	55.384217
57.6900	15.949024	55.840728
57.7000	15.949024	57.014729
57.7100	15.949024	58.732296
57.7200	15.949024	60.591491
57.7300	15.949024	62.132805
57.7400	15.949024	63.035243
57.7500	15.949024	63.252514
57.7600	15.949024	63.029963
57.7700	15.949024	62.795212
57.7800	15.949024	62.970820
57.7900	15.949024	63.791024
57.8000	15.949024	65.202254
57.8100	15.949024	66.889857
57.8200	15.949024	68.418150
57.8300	15.949024	69.421847
57.8400	15.949024	69.765466
57.8500	15.949024	69.602282
57.8600	15.949024	69.308584
57.8700	15.949024	69.322799
57.8800	15.949024	69.958979
57.8900	15.949024	71.273664
57.9000	15.949024	73.040898
57.9100	15.949024	74.843744
57.9200	15.949024	76.242183
57.9300	15.949024	76.947385
57.9400	15.949024	76.932397
57.9500	15.949024	76.437921
57.9600	15.949024	75.875563
57.9700	15.949024	75.671045
57.9800	15.949024	76.110306
57.9900	15.949024	77.245601
58.0000	15.949024	78.891195
58.0100	15.949024	80.702084
58.0200	15.949024	82.299499
58.0300	15.949024	83.394524
58.0400	15.949024	83.868508
58.0500	15.949024	83.790256
58.0600	15.949024	83.374733
58.0700	15.949024	82.906238
58.0800	15.949024	82.655142
58.0900	15.949024	82.812034
58.1000	15.949024	83.451604
58.1100	15.949024	84.527240
58.1200	15.949024	85.890413
58.1300	15.949024	87.327213
58.1400	15.949024	88.605341
58.1500	15.949024	89.525404
58.1600	15.949024	89.968718
58.1700	15.949024	89.931104
58.1800	15.949024	89.531372
58.1900	15.949024	88.987013
58.2000	15.949024	88.558812
58.2100	15.949024	88.477577
58.2200	15.949024	88.875179
58.2300	15.949024	89.743527
58.2400	15.949024	90.937044
58.2500	15.949024	92.219072
58.2600	15.949024	93.336271
58.2700	15.949024	94.094633
58.2800	15.949024	94.410869
58.2900	15.949024	94.323600
58.3000	15.949024	93.965348
58.3100	15.949024	93.511133
58.3200	15.949024	93.126192
58.3300	15.949024	92.931330
58.3400	15.949024	92.992629
58.3500	15.949024	93.329087
58.3600	15.949024	93.924253
58.3700	15.949024	94.729873
58.3800	15.949024	95.659267
58.3900	15.949024	96.579854
58.4000	15.949024	97.320360
58.4100	15.949024	97.704128
58.4200	15.949024	97.606394
58.4300	15.949024	97.016785
58.4400	15.949024	96.077726
58.4500	15.949024	95.072241
58.4600	15.949024	94.351950
58.4700	15.949024	94.221950
58.4800	15.949024	94.822259
58.4900	15.949024	96.054224
58.5000	15.949024	97.588519
58.5100	15.949024	98.961903
58.5200	15.949024	99.733893
58.5300	15.949024	99.647178
58.5400	15.949024	98.729553
58.5500	15.949024	97.294515
58.5600	15.949024	95.835782
58.5700	15.949024	94.852824
58.5800	15.949024	94.672615
58.5900	15.949024	95.335334
58.6000	15.949024	96.587075
58.6100	15.949024	97.980678
58.6200	15.949024	99.043820
58.6300	15.949024	99.448521
58.6400	15.949024	99.118126
58.6500	15.949024	98.235033
58.6600	15.949024	97.152939
58.6700	15.949024	96.254120
58.6800	15.949024	95.810446
58.6900	15.949024	95.900250
58.7000	15.949024	96.406183
58.7100	15.949024	97.085836
